<?xml version="1.0" encoding="UTF-8"?>
<!DOCTYPE svg PUBLIC "-//W3C//DTD SVG 1.1//EN" "http://www.w3.org/Graphics/SVG/1.1/DTD/svg11.dtd">
<!-- Creator: CorelDRAW X5 -->
<svg xmlns="http://www.w3.org/2000/svg" xml:space="preserve" width="8.5in" height="11in" style="shape-rendering:geometricPrecision; text-rendering:geometricPrecision; image-rendering:optimizeQuality; fill-rule:evenodd; clip-rule:evenodd"
viewBox="0 0 8.5 11"
 xmlns:xlink="http://www.w3.org/1999/xlink">
 <defs>
  <style type="text/css">
   <![CDATA[
    .str0 {stroke:#96989A;stroke-width:0.00694488}
    .fil0 {fill:none}
   ]]>
  </style>
 </defs>
 <g id="Layer_x0020_1">
  <metadata id="CorelCorpID_0Corel-Layer"/>
  <path class="fil0 str0" d="M4.06475 3.42856c0.359535,0 0.696496,0.0966181 0.986386,0.265228 -0.348921,0.0406535 -0.61974,0.337185 -0.61974,0.69702 0,0.387606 0.314217,0.701823 0.701823,0.701823 0.344567,0 0.631118,-0.248319 0.690512,-0.575756 0.131831,0.263961 0.206118,0.561673 0.206118,0.876783 0,0.114579 -0.00991732,0.226839 -0.0287362,0.336043 -0.273539,-0.187366 -0.661571,-0.331524 -1.11373,-0.407713 -0.0399213,0.0369528 -0.133618,0.0691969 -0.261504,0.0923543 0.549134,0.0550118 1.02647,0.207142 1.35469,0.41837 -0.118811,0.520598 -0.44437,0.962449 -0.885693,1.23466l-0.295949 -0.151701 0.0576299 -0.0722638 -0.0360512 -0.157965 -0.0360591 -0.157965 -0.145976 -0.0702953 -0.14598 -0.0703031 -0.14598 0.0703031 -0.0874685 0.042122 -0.0273386 -0.0660079 -0.0159252 -0.0384449 0.141579 -0.0671693 0.0369803 -0.157748 0.0369724 -0.157752 -0.10028 -0.12726 -0.10028 -0.127268 -0.162024 -0.000944882 -0.162016 -0.000948819 -0.101764 0.126087 -0.10176 0.126083 0.0351339 0.158173 0.0351299 0.158169 0.115031 0.0562244 -0.021874 0.0527992 -0.0227677 0.0549724 -0.0711929 -0.0342835 -0.14598 -0.0703031 -0.14598 0.0703031 -0.145976 0.0702953 -0.0360551 0.157965 -0.0360551 0.157965 0.0716535 0.0898504 -0.222772 0.182335c-0.442094,-0.245768 -0.779445,-0.657169 -0.928232,-1.15036 0.315067,-0.274114 0.857811,-0.47648 1.50188,-0.544953 -0.1355,-0.0232677 -0.235047,-0.0565 -0.276748,-0.094815 -0.538559,0.0909606 -0.986012,0.278374 -1.25715,0.520339 -0.0337323,-0.144181 -0.0515787,-0.29448 -0.0515787,-0.448949 0,-0.350547 0.0918819,-0.679606 0.252744,-0.964531 0.0362638,0.353559 0.334984,0.629362 0.698122,0.629362 0.387606,0 0.701823,-0.314217 0.701823,-0.701823 0,-0.357854 -0.267839,-0.653138 -0.61398,-0.696362 0.276016,-0.147827 0.591386,-0.231744 0.92639,-0.231744l-3.93701e-006 -3.93701e-006z"/>
 </g>
</svg>
